<svg width="911" height="200" viewBox="0 0 911 200" fill="none" xmlns="http://www.w3.org/2000/svg">
<path fill-rule="evenodd" clip-rule="evenodd" d="M59.0837 5.01252C56.9557 2.33852 54.91 1.0012 52.9467 1.00053H10.0787C8.66071 0.983612 7.26753 1.37281 6.06365 2.12217C4.85978 2.87154 3.89548 3.94975 3.28466 5.2295C1.62549 8.39806 0.862414 11.9593 1.07766 15.5295C1.40689 18.3095 2.36032 20.979 3.86666 23.3385C5.50733 26.0865 7.14799 27.4602 8.78866 27.4595H21.5887V164.329H8.78866C6.81999 164.329 4.96066 166.151 3.21066 169.796C1.46066 173.44 0.749659 176.502 1.07766 178.981C1.56668 181.753 2.5359 184.418 3.94166 186.857C5.41299 189.477 7.02199 190.788 8.76866 190.792H54.2567C56.328 190.792 58.2643 189.005 60.0657 185.433C61.867 181.86 62.4943 178.762 61.9477 176.14C61.8184 173.403 60.9387 170.754 59.4047 168.484C57.7073 165.716 55.9847 164.331 54.2367 164.329H41.4367V27.4625H54.2367C56.0953 27.4625 57.982 25.5825 59.8967 21.8225C61.8113 18.0625 62.495 15.0982 61.9477 12.9295C62.1657 10.3275 61.211 7.68852 59.0837 5.01252ZM174.5 33.7525C174.5 26.8118 171.464 19.6178 165.394 12.1705C159.323 4.72318 153.608 1.00119 148.249 1.00453H98.5357C93.175 1.00453 87.46 4.76852 81.3907 12.2965C75.3213 19.8245 72.2857 27.0605 72.2837 34.0045V157.785C72.2837 164.299 75.2003 171.428 81.0337 179.174C86.867 186.919 92.237 190.792 97.1437 190.792H149.478C156.02 189.774 161.825 185.274 166.895 177.292C171.823 169.785 174.465 161.009 174.501 152.03C174.501 147.675 173.601 144.118 171.801 141.358C171.04 140.07 169.95 139.009 168.644 138.282C167.338 137.554 165.861 137.187 164.367 137.219C160.552 137.219 157.719 139.026 155.867 142.642C154.996 147.992 154.342 151.969 153.906 154.572C152.598 161.078 150.419 164.332 147.369 164.332H99.1637C98.2923 164.332 96.903 163.103 94.9957 160.645C93.0883 158.187 92.1357 156.379 92.1377 155.222V36.5725C92.1377 35.4165 93.0947 33.6088 95.0087 31.1495C96.9227 28.6902 98.3173 27.4612 99.1927 27.4625H147.593C148.468 27.4625 149.863 28.7292 151.777 31.2625C153.691 33.7959 154.648 35.6395 154.648 36.7935V71.7145C156.288 78.2225 159.625 81.4762 164.657 81.4755C170.015 81.4755 173.296 78.2218 174.501 71.7145V33.7525H174.5ZM285.083 33.7525C285.083 26.8118 282.047 19.6178 275.977 12.1705C269.906 4.72318 264.191 1.00119 258.832 1.00453H191.891C190.251 1.00453 188.337 2.16119 186.149 4.47453C183.961 6.78786 182.867 9.02919 182.868 11.1985V180.599C184.508 187.106 187.844 190.36 192.876 190.36C198.234 190.36 201.515 187.106 202.72 180.599V109.019H260.144C262.22 109.019 265.447 107.392 269.825 104.139C274.202 100.885 276.991 98.0292 278.192 95.5705C280.31 91.6362 282.015 87.4927 283.278 83.2065C283.512 82.5127 283.844 81.8555 284.263 81.2545C284.755 80.5521 285.039 79.7251 285.083 78.8685V33.7525ZM262.021 79.5195C259.883 81.6888 258.156 82.7012 256.84 82.5565H202.72V27.4625H256.84C258.154 27.4625 259.881 28.5472 262.021 30.7165C264.16 32.8858 265.23 34.8379 265.231 36.5725V73.6635C265.231 75.3989 264.161 77.3508 262.021 79.5195ZM392.877 33.7525C392.877 26.8118 389.841 19.6178 383.771 12.1705C377.7 4.72318 371.985 1.00119 366.626 1.00453H316.914C311.553 1.00453 305.838 4.76852 299.768 12.2965C293.698 19.8245 290.662 27.0605 290.661 34.0045V157.785C290.661 164.299 293.577 171.428 299.411 179.174C305.244 186.919 310.614 190.792 315.521 190.792H367.854C374.396 189.774 380.201 185.274 385.271 177.292C390.199 169.785 392.841 161.009 392.877 152.03C392.877 147.675 391.977 144.118 390.177 141.358C389.416 140.07 388.326 139.009 387.02 138.281C385.714 137.554 384.238 137.187 382.743 137.219C378.927 137.219 376.094 139.026 374.243 142.642C373.372 147.992 372.718 151.969 372.282 154.572C370.974 161.078 368.795 164.332 365.745 164.332H317.541C316.669 164.332 315.279 163.103 313.372 160.645C311.464 158.187 310.512 156.378 310.514 155.219V36.5725C310.514 35.4165 311.471 33.6088 313.385 31.1495C315.299 28.6902 316.693 27.4612 317.569 27.4625H365.969C366.843 27.4625 368.237 28.7292 370.152 31.2625C372.066 33.7959 373.024 35.6395 373.024 36.7935V71.7145C374.664 78.2225 378 81.4762 383.032 81.4755C388.39 81.4755 391.671 78.2218 392.876 71.7145V33.7525H392.877Z" fill="white" stroke="black"/>
<path fill-rule="evenodd" clip-rule="evenodd" d="M520.059 96.1175H540.584V21.9515H564.884V6.08551H495.757V21.9515H520.057V96.1175H520.059ZM562.119 96.1175H581.259L587.429 76.0965H620.042L626.212 96.1175H647.492L618.279 6.08551H591.714L562.119 96.1175ZM603.798 22.7045L615.635 61.6135H591.835L603.798 22.7045ZM660.214 96.1175H678.346V32.0245L715.87 96.1175H736.27V6.08551H718.137V65.3935L683.887 6.08551H660.214V96.1175ZM773.671 96.1175H794.196V21.9515H818.496V6.08551H749.366V21.9515H773.666V96.1175H773.671ZM815.73 96.1175H834.87L841.04 76.0965H873.653L879.823 96.1175H901.104L871.89 6.08551H845.321L815.73 96.1175ZM857.414 22.7045L869.25 61.6135H845.45L857.414 22.7045ZM522.002 185.723C535.025 185.723 544.422 178.989 545.754 165.893H533.989C533.027 172.7 528.44 176.03 521.854 176.03C513.123 176.03 508.092 169.666 508.092 158.715V158.122C508.092 147.171 513.419 140.66 521.78 140.66C528.44 140.66 531.991 144.06 532.88 150.427H545.163C543.905 137.404 534.434 131.19 521.707 131.19C506.687 131.19 495.44 142.141 495.44 158.197V158.789C495.439 175.068 504.688 185.723 522.002 185.723ZM570.541 177.583C564.474 177.583 561.07 173.144 561.07 165.745V165.152C561.07 157.752 564.622 153.462 570.541 153.462C576.535 153.462 580.012 157.901 580.012 165.301V165.819C580.014 173.144 576.535 177.583 570.541 177.583ZM570.467 185.723C582.084 185.723 590.889 177.953 590.889 165.745V165.152C590.889 153.091 582.158 145.322 570.541 145.322C558.924 145.322 550.119 153.24 550.119 165.375V165.966C550.119 178.026 558.924 185.723 570.467 185.723ZM597.992 184.909H608.721V162.044C608.721 156.79 612.051 154.128 616.194 154.128C619.968 154.128 622.262 156.347 622.262 161.305V184.905H632.914V162.044C632.914 156.79 636.244 154.128 640.387 154.128C644.235 154.128 646.455 156.347 646.455 161.305V184.905H657.114V160.121C657.114 149.836 651.564 145.32 644.387 145.32C641.827 145.27 639.295 145.859 637.021 147.035C634.746 148.211 632.802 149.936 631.364 152.055C629.514 147.467 625.664 145.32 620.564 145.32C618.156 145.263 615.779 145.868 613.692 147.068C611.604 148.269 609.886 150.019 608.725 152.129V146.208H597.992V184.909ZM666.213 184.909H676.942V162.044C676.942 156.79 680.272 154.128 684.415 154.128C688.189 154.128 690.483 156.347 690.483 161.305V184.905H701.138V162.044C701.138 156.79 704.468 154.128 708.611 154.128C712.459 154.128 714.679 156.347 714.679 161.305V184.905H725.334V160.121C725.334 149.836 719.784 145.32 712.607 145.32C710.047 145.27 707.515 145.859 705.241 147.035C702.967 148.211 701.022 149.936 699.584 152.055C697.734 147.467 693.884 145.32 688.784 145.32C686.376 145.263 683.999 145.868 681.912 147.068C679.824 148.269 678.106 150.019 676.945 152.129V146.208H666.214V184.909H666.213ZM747.313 185.723C753.676 185.723 757.598 182.763 759.596 178.841V184.905H770.251V146.204H759.592V168.921C759.592 174.621 756.04 177.431 751.526 177.431C746.939 177.431 744.793 174.914 744.793 169.66V146.21H734.138V171.146C734.138 181.283 739.76 185.723 747.313 185.723ZM779.647 184.909H790.376V162.562C790.376 156.863 793.854 154.053 798.442 154.053C803.177 154.053 805.249 156.569 805.249 161.823V184.905H815.974V160.264C815.974 149.905 810.574 145.318 802.951 145.318C796.514 145.318 792.296 148.5 790.372 152.348V146.206H779.643V184.906L779.647 184.909ZM825.375 184.909H836.03V146.208H825.371V184.909H825.375ZM830.628 140.957C831.775 140.914 832.884 140.535 833.817 139.867C834.75 139.198 835.466 138.27 835.876 137.198C836.285 136.126 836.37 134.957 836.12 133.837C835.87 132.716 835.296 131.694 834.47 130.898C833.643 130.102 832.601 129.566 831.472 129.358C830.343 129.149 829.178 129.278 828.122 129.727C827.066 130.176 826.165 130.926 825.532 131.883C824.898 132.84 824.561 133.963 824.561 135.111C824.565 135.895 824.727 136.671 825.036 137.393C825.345 138.114 825.795 138.767 826.36 139.311C826.925 139.856 827.593 140.282 828.326 140.565C829.058 140.847 829.839 140.981 830.624 140.957H830.628ZM859.928 185.648C862.141 185.675 864.344 185.325 866.44 184.613V176.326C865.15 176.853 863.763 177.105 862.37 177.065C859.632 177.065 858.078 175.586 858.078 172.478V153.832H866.218V146.21H858.078V137.849H847.42V146.21H842.463V153.832H847.42V173.44C847.42 181.505 851.786 185.648 859.925 185.648H859.928ZM878.5 198.079H888.859L909.799 146.21H899.514L890.857 169.444L881.457 146.21H869.914L885.304 180.987L878.5 198.079Z" fill="white" stroke="black"/>
<path fill-rule="evenodd" clip-rule="evenodd" d="M447.429 6.8045V193.733Z" fill="white"/>
<path d="M447.429 6.8045V193.733" stroke="white" stroke-width="12" stroke-linecap="round"/>
</svg>
