<svg width="15" height="15" viewBox="0 0 15 15" fill="none" xmlns="http://www.w3.org/2000/svg">
<path d="M15 12.1875V7.5C15 7.25136 14.9012 7.0129 14.7254 6.83709C14.5496 6.66127 14.3111 6.5625 14.0625 6.5625H12.1875C11.9389 6.5625 11.7004 6.66127 11.5246 6.83709C11.3488 7.0129 11.25 7.25136 11.25 7.5V12.1875C11.25 12.4361 11.3488 12.6746 11.5246 12.8504C11.7004 13.0262 11.9389 13.125 12.1875 13.125H14.0625C14.3111 13.125 14.5496 13.0262 14.7254 12.8504C14.9012 12.6746 15 12.4361 15 12.1875Z" fill="#F44336"/>
<path d="M8.4375 13.125C8.68614 13.125 8.9246 13.0262 9.10041 12.8504C9.27623 12.6746 9.375 12.4361 9.375 12.1875V2.8125C9.375 2.56386 9.27623 2.3254 9.10041 2.14959C8.9246 1.97377 8.68614 1.875 8.4375 1.875H6.5625C6.04562 1.875 5.625 2.295 5.625 2.8125V12.1875C5.625 12.705 6.04562 13.125 6.5625 13.125H8.4375Z" fill="#2196F3"/>
<path d="M0 12.1875C0 12.705 0.420625 13.125 0.9375 13.125H2.8125C3.06114 13.125 3.2996 13.0262 3.47541 12.8504C3.65123 12.6746 3.75 12.4361 3.75 12.1875V5.625C3.75 5.37636 3.65123 5.1379 3.47541 4.96209C3.2996 4.78627 3.06114 4.6875 2.8125 4.6875H0.9375C0.420625 4.6875 0 5.1075 0 5.625V12.1875Z" fill="#FFC107"/>
</svg>
