<svg width="1000" height="799" viewBox="0 0 1000 799" fill="none" xmlns="http://www.w3.org/2000/svg">
<path fill-rule="evenodd" clip-rule="evenodd" d="M333.948 717.585C322.577 724.136 309.685 727.584 296.562 727.584C283.439 727.584 270.546 724.136 259.175 717.585L38.1227 590.222C26.7224 583.653 17.2538 574.197 10.6702 562.806C4.08653 551.415 0.620174 538.49 0.620117 525.333V270.873C0.620063 257.716 4.08625 244.792 10.6697 233.4C17.2532 222.009 26.7215 212.553 38.1216 205.985L259.175 78.6217C270.546 72.0704 283.439 68.6219 296.562 68.6219C309.685 68.6219 322.577 72.0704 333.948 78.6217L176.828 171.008C165.424 177.575 155.953 187.032 149.367 198.425C142.781 209.819 139.314 222.746 139.314 235.906V562.496C139.314 575.657 142.782 588.585 149.369 599.978C155.956 611.371 165.429 620.828 176.833 627.395" fill="#487FC1"/>
<path fill-rule="evenodd" clip-rule="evenodd" d="M664.689 717.585C676.061 724.137 688.954 727.586 702.078 727.586C715.203 727.586 728.096 724.137 739.468 717.585L960.516 590.222C971.916 583.653 981.384 574.197 987.968 562.806C994.551 551.415 998.017 538.49 998.017 525.333V270.873C998.017 257.716 994.551 244.792 987.968 233.4C981.384 222.009 971.916 212.553 960.516 205.985L739.462 78.6217C728.091 72.0693 715.197 68.6204 702.073 68.6204C688.949 68.6204 676.055 72.0693 664.684 78.6217L821.804 171.008C833.209 177.575 842.682 187.031 849.268 198.424C855.855 209.818 859.323 222.746 859.323 235.906V562.496C859.323 575.657 855.855 588.585 849.268 599.978C842.682 611.371 833.209 620.828 821.804 627.395" fill="#AF2A1B"/>
<path fill-rule="evenodd" clip-rule="evenodd" d="M836.988 550.267C836.987 563.428 833.519 576.356 826.932 587.749C820.345 599.143 810.872 608.599 799.467 615.166L536.808 766.406C525.441 772.951 512.555 776.396 499.439 776.396C486.323 776.396 473.438 772.951 462.071 766.406L199.411 615.166C188.006 608.599 178.533 599.143 171.946 587.749C165.359 576.356 161.891 563.428 161.891 550.267V248.137C161.891 234.977 165.359 222.049 171.946 210.655C178.533 199.262 188.006 189.805 199.411 183.239L462.071 31.9993C473.438 25.4547 486.323 22.01 499.439 22.01C512.555 22.01 525.441 25.4547 536.808 31.9993L799.467 183.239C810.872 189.805 820.345 199.262 826.932 210.655C833.519 222.049 836.987 234.977 836.988 248.137V550.267Z" fill="#FCB400"/>
<path fill-rule="evenodd" clip-rule="evenodd" d="M706.29 196.776C706.467 186.799 703.22 177.062 697.092 169.187C690.953 161.304 682.631 157.362 672.126 157.362H334.435C323.923 157.362 315.492 161.304 309.141 169.187C302.82 176.977 299.447 186.745 299.615 196.776C299.615 219.112 309.251 232.688 328.522 237.504H463.207V667.113C469.777 686.82 483.136 696.674 503.283 696.674C524.307 696.674 537.446 686.82 542.702 667.113V237.504H677.391C696.658 232.691 706.294 219.114 706.298 196.776H706.29Z" fill="white" stroke="black" stroke-width="1.1013"/>
<path fill-rule="evenodd" clip-rule="evenodd" d="M648.829 325.938C648.829 311.061 640.228 295.642 623.024 279.684C605.82 263.725 589.624 255.744 574.434 255.742H433.547C418.356 255.742 402.159 263.81 384.957 279.946C367.755 296.082 359.153 311.596 359.151 326.488V591.791C359.151 605.752 367.417 621.034 383.947 637.635C400.478 654.236 415.696 662.536 429.603 662.537H577.915C596.455 660.358 612.908 650.711 627.274 633.596C641.639 616.481 648.824 598.432 648.829 579.449C648.829 570.114 646.282 562.489 641.186 556.574C636.091 550.658 629.068 547.702 620.117 547.705C609.307 547.705 601.279 551.579 596.033 559.327C593.564 570.796 591.712 579.32 590.476 584.897C586.77 598.847 580.594 605.821 571.95 605.821H435.327C432.857 605.821 428.919 603.187 423.514 597.917C418.108 592.648 415.407 588.771 415.41 586.288V331.982C415.41 329.505 418.122 325.631 423.547 320.359C428.971 315.088 432.923 312.453 435.404 312.456H572.571C575.048 312.456 579 315.168 584.428 320.592C589.855 326.015 592.567 329.967 592.565 332.447V407.297C597.215 421.247 606.669 428.222 620.928 428.222C636.113 428.222 645.412 421.247 648.826 407.297V325.938H648.829Z" fill="white" stroke="#FCB400" stroke-width="6.6078" stroke-linejoin="round"/>
<path fill-rule="evenodd" clip-rule="evenodd" d="M706.29 196.776C706.467 186.799 703.22 177.062 697.092 169.187C690.953 161.304 682.631 157.362 672.126 157.362H334.435C323.923 157.362 315.492 161.304 309.141 169.187C302.82 176.977 299.447 186.745 299.615 196.776C299.615 219.112 309.251 232.688 328.522 237.504H463.207V667.113C469.777 686.82 483.136 696.674 503.283 696.674C524.307 696.674 537.446 686.82 542.702 667.113V237.504H677.391C696.658 232.691 706.294 219.114 706.298 196.776H706.29Z" fill="white" stroke="#FCB400" stroke-width="6.6078" stroke-linejoin="round"/>
</svg>
